<mxfile host="65bd71144e">
    <diagram id="uAqwuRCBwSX3c7VwIzCT" name="ページ1">
        <mxGraphModel dx="396" dy="475" grid="1" gridSize="10" guides="1" tooltips="1" connect="1" arrows="1" fold="1" page="1" pageScale="1" pageWidth="1654" pageHeight="1169" math="0" shadow="0">
            <root>
                <mxCell id="0"/>
                <mxCell id="1" parent="0"/>
                <mxCell id="3" value="類似損傷&lt;br&gt;検索" style="shape=umlLifeline;perimeter=lifelinePerimeter;whiteSpace=wrap;html=1;container=1;collapsible=0;recursiveResize=0;outlineConnect=0;" parent="1" vertex="1">
                    <mxGeometry x="130" y="40" width="100" height="580" as="geometry"/>
                </mxCell>
                <mxCell id="8" value="" style="html=1;points=[];perimeter=orthogonalPerimeter;" parent="3" vertex="1">
                    <mxGeometry x="45" y="90" width="10" height="430" as="geometry"/>
                </mxCell>
                <mxCell id="13" value="" style="html=1;points=[];perimeter=orthogonalPerimeter;" parent="3" vertex="1">
                    <mxGeometry x="55" y="427" width="10" height="55" as="geometry"/>
                </mxCell>
                <mxCell id="14" value="" style="html=1;verticalAlign=bottom;endArrow=block;entryX=0.9;entryY=0.2;entryDx=0;entryDy=0;entryPerimeter=0;" parent="3" target="13" edge="1">
                    <mxGeometry width="80" relative="1" as="geometry">
                        <mxPoint x="55" y="417" as="sourcePoint"/>
                        <mxPoint x="85" y="407" as="targetPoint"/>
                        <Array as="points">
                            <mxPoint x="90" y="417"/>
                            <mxPoint x="90" y="438"/>
                        </Array>
                    </mxGeometry>
                </mxCell>
                <mxCell id="5" value="TotalScore" style="shape=umlLifeline;perimeter=lifelinePerimeter;whiteSpace=wrap;html=1;container=1;collapsible=0;recursiveResize=0;outlineConnect=0;" parent="1" vertex="1">
                    <mxGeometry x="340" y="40" width="100" height="580" as="geometry"/>
                </mxCell>
                <mxCell id="11" value="" style="html=1;points=[];perimeter=orthogonalPerimeter;" parent="5" vertex="1">
                    <mxGeometry x="45" y="185" width="10" height="225" as="geometry"/>
                </mxCell>
                <mxCell id="22" value="1属性の類似スコアを計算" style="html=1;verticalAlign=bottom;endArrow=block;entryX=-0.4;entryY=0.235;entryDx=0;entryDy=0;entryPerimeter=0;" parent="5" edge="1">
                    <mxGeometry width="80" relative="1" as="geometry">
                        <mxPoint x="55" y="269.5" as="sourcePoint"/>
                        <mxPoint x="261" y="269.50000000000006" as="targetPoint"/>
                    </mxGeometry>
                </mxCell>
                <mxCell id="23" value="" style="html=1;points=[];perimeter=orthogonalPerimeter;" parent="5" vertex="1">
                    <mxGeometry x="55" y="350" width="10" height="35" as="geometry"/>
                </mxCell>
                <mxCell id="6" value="UnitScore" style="shape=umlLifeline;perimeter=lifelinePerimeter;whiteSpace=wrap;html=1;container=1;collapsible=0;recursiveResize=0;outlineConnect=0;" parent="1" vertex="1">
                    <mxGeometry x="560" y="40" width="100" height="580" as="geometry"/>
                </mxCell>
                <mxCell id="12" value="" style="html=1;points=[];perimeter=orthogonalPerimeter;" parent="6" vertex="1">
                    <mxGeometry x="45" y="270.5" width="10" height="49.5" as="geometry"/>
                </mxCell>
                <mxCell id="7" value="execute" style="html=1;verticalAlign=bottom;endArrow=block;" parent="1" edge="1">
                    <mxGeometry width="80" relative="1" as="geometry">
                        <mxPoint x="95" y="141" as="sourcePoint"/>
                        <mxPoint x="175" y="141" as="targetPoint"/>
                    </mxGeometry>
                </mxCell>
                <mxCell id="17" value="類似スコアが閾値以上の&lt;br&gt;検索結果を&lt;br&gt;CSVに出力" style="text;html=1;strokeColor=none;fillColor=none;align=center;verticalAlign=middle;whiteSpace=wrap;rounded=0;" parent="1" vertex="1">
                    <mxGeometry x="225" y="460" width="134" height="30" as="geometry"/>
                </mxCell>
                <mxCell id="18" value="" style="html=1;points=[];perimeter=orthogonalPerimeter;" parent="1" vertex="1">
                    <mxGeometry x="185" y="165" width="10" height="55" as="geometry"/>
                </mxCell>
                <mxCell id="19" value="" style="html=1;verticalAlign=bottom;endArrow=block;entryX=0.9;entryY=0.2;entryDx=0;entryDy=0;entryPerimeter=0;" parent="1" target="18" edge="1">
                    <mxGeometry width="80" relative="1" as="geometry">
                        <mxPoint x="185" y="155" as="sourcePoint"/>
                        <mxPoint x="85" y="105" as="targetPoint"/>
                        <Array as="points">
                            <mxPoint x="220" y="155"/>
                            <mxPoint x="220" y="176"/>
                        </Array>
                    </mxGeometry>
                </mxCell>
                <mxCell id="20" value="検索を書けたいデータと&lt;br&gt;検索対象を読み込み" style="text;html=1;strokeColor=none;fillColor=none;align=center;verticalAlign=middle;whiteSpace=wrap;rounded=0;" parent="1" vertex="1">
                    <mxGeometry x="226" y="150" width="134" height="30" as="geometry"/>
                </mxCell>
                <mxCell id="21" value="1データの類似スコアを計算" style="html=1;verticalAlign=bottom;endArrow=block;exitX=1;exitY=0.314;exitDx=0;exitDy=0;exitPerimeter=0;" parent="1" source="8" edge="1">
                    <mxGeometry width="80" relative="1" as="geometry">
                        <mxPoint x="210" y="240" as="sourcePoint"/>
                        <mxPoint x="380" y="265" as="targetPoint"/>
                    </mxGeometry>
                </mxCell>
                <mxCell id="25" value="" style="html=1;verticalAlign=bottom;endArrow=block;entryX=0.9;entryY=0.2;entryDx=0;entryDy=0;entryPerimeter=0;" parent="1" edge="1">
                    <mxGeometry width="80" relative="1" as="geometry">
                        <mxPoint x="397" y="377" as="sourcePoint"/>
                        <mxPoint x="406" y="398" as="targetPoint"/>
                        <Array as="points">
                            <mxPoint x="432" y="377"/>
                            <mxPoint x="432" y="398"/>
                        </Array>
                    </mxGeometry>
                </mxCell>
                <mxCell id="26" value="各属性の類似スコアを合算" style="text;html=1;strokeColor=none;fillColor=none;align=center;verticalAlign=middle;whiteSpace=wrap;rounded=0;" parent="1" vertex="1">
                    <mxGeometry x="438" y="372" width="92" height="30" as="geometry"/>
                </mxCell>
                <mxCell id="27" value="" style="endArrow=classic;html=1;exitX=-0.2;exitY=1;exitDx=0;exitDy=0;exitPerimeter=0;dashed=1;" parent="1" source="12" target="11" edge="1">
                    <mxGeometry width="50" height="50" relative="1" as="geometry">
                        <mxPoint x="440" y="180" as="sourcePoint"/>
                        <mxPoint x="490" y="130" as="targetPoint"/>
                    </mxGeometry>
                </mxCell>
                <mxCell id="28" value="" style="endArrow=classic;html=1;exitX=0.5;exitY=0.956;exitDx=0;exitDy=0;exitPerimeter=0;dashed=1;" parent="1" edge="1">
                    <mxGeometry width="50" height="50" relative="1" as="geometry">
                        <mxPoint x="384" y="440.1" as="sourcePoint"/>
                        <mxPoint x="184" y="440" as="targetPoint"/>
                    </mxGeometry>
                </mxCell>
            </root>
        </mxGraphModel>
    </diagram>
</mxfile>